<?xml version="1.0" encoding="UTF-8"?>
<svg xmlns="http://www.w3.org/2000/svg" version="1.1" width="695" height="230" viewBox="0 0 65535 21695"><svg id="Ebene_3" viewBox="0 0 219.64 72.71" width="65535" height="21695"><defs><style>.cls-1{fill:#e4032e;}.cls-2{fill:#4c575d;}</style></defs><polygon class="cls-2" points="142.71 0 142.75 26.05 127.42 0 110.01 0 110.01 49.93 127.46 49.93 127.46 24.86 142.71 49.93 160.05 49.93 160.05 0 142.71 0"/><path class="cls-2" d="M29.07,34.48l19.52,.02v15.43H0S20.65,16.94,22.11,15.1H4.3V0H50.77L29.07,34.48Z"/><g><path class="cls-2" d="M101.61,10.82V29.53c0,14.57-9.14,21.19-23.1,21.19s-23.1-6.62-23.1-21.19V10.82h18.14V27.81c0,3.91,.13,7.35,4.96,7.35s4.96-3.44,4.96-7.35V10.82h18.14Z"/><rect class="cls-2" x="55.33" width="18.19" height="8.16"/><rect class="cls-2" x="83.47" width="18.19" height="8.16"/></g><path class="cls-2" d="M4.82,69.07c-2.05,0-3.77-.81-3.77-3.14h1.69c.07,1.34,.84,1.97,2.16,1.97,1.02,0,2.18-.5,2.18-1.65,0-.63-.36-1.01-.9-1.28-.59-.28-1.32-.44-1.97-.59-1.44-.36-2.91-.94-2.91-2.66,0-2.01,1.97-2.76,3.68-2.76,1.93,0,3.47,.8,3.54,2.93h-1.67c-.04-1.13-.79-1.78-1.92-1.78-.88,0-1.99,.4-1.99,1.43,0,.59,.36,.94,.9,1.21,.61,.31,1.34,.44,1.99,.61,1.46,.38,2.91,.94,2.91,2.7,0,2.2-2.03,3.01-3.93,3.01"/><polygon class="cls-2" points="22.18 68.86 20.51 68.86 17.81 60.86 15.05 68.86 13.33 68.86 9.9 59.19 11.78 59.19 14.27 67.12 16.93 59.19 18.86 59.19 21.47 67.02 23.98 59.19 25.62 59.19 22.18 68.86"/><path class="cls-2" d="M27.36,55.01h1.88v1.7h-1.88v-1.7Zm.1,4.17h1.68v9.67h-1.68v-9.67Z"/><path class="cls-2" d="M35.31,69.07c-2.05,0-3.77-.81-3.77-3.14h1.69c.08,1.34,.84,1.97,2.16,1.97,1.01,0,2.18-.5,2.18-1.65,0-.63-.36-1.01-.9-1.28-.59-.28-1.32-.44-1.97-.59-1.44-.36-2.91-.94-2.91-2.66,0-2.01,1.97-2.76,3.68-2.76,1.93,0,3.47,.8,3.54,2.93h-1.67c-.04-1.13-.79-1.78-1.91-1.78-.88,0-1.99,.4-1.99,1.43,0,.59,.37,.94,.9,1.21,.61,.31,1.34,.44,1.99,.61,1.46,.38,2.91,.94,2.91,2.7,0,2.2-2.03,3.01-3.93,3.01"/><path class="cls-2" d="M44.73,69.07c-2.05,0-3.77-.81-3.77-3.14h1.69c.07,1.34,.84,1.97,2.16,1.97,1.01,0,2.18-.5,2.18-1.65,0-.63-.36-1.01-.9-1.28-.6-.28-1.32-.44-1.97-.59-1.44-.36-2.91-.94-2.91-2.66,0-2.01,1.97-2.76,3.68-2.76,1.93,0,3.47,.8,3.54,2.93h-1.67c-.04-1.13-.79-1.78-1.92-1.78-.88,0-1.99,.4-1.99,1.43,0,.59,.36,.94,.9,1.21,.61,.31,1.34,.44,1.99,.61,1.46,.38,2.91,.94,2.91,2.7,0,2.2-2.03,3.01-3.93,3.01"/><path class="cls-2" d="M60.62,69.07c-3.04,0-4.69-2.01-4.69-4.94s1.65-5.21,4.79-5.21c2.18,0,3.75,1.11,3.94,3.39h-1.65c-.1-1.38-.92-2.2-2.3-2.2-2.28,0-3.01,1.99-3.01,3.94,0,1.84,.79,3.87,2.93,3.87,1.42,0,2.32-.92,2.41-2.32h1.59l.06,.02c-.17,2.32-1.88,3.45-4.08,3.45"/><path class="cls-2" d="M73.49,68.86l-.08-1.53c-.8,1.11-1.72,1.65-3.12,1.65-2.55,0-3.47-1.38-3.47-3.77v-6.01h1.68v5.36c0,1.69,.19,3.14,2.24,3.14s2.66-1.62,2.66-3.39v-5.12h1.69v4.69c0,1.65-.02,3.32,.04,4.98h-1.65Z"/><path class="cls-2" d="M81.14,68.95c-1.55,0-2.36-.63-2.36-2.24v-6.35h-1.89v-1.17h1.89v-1.87l1.68-.71v2.59h2.17v1.17h-2.17v5.68c0,1.09,.1,1.61,1.32,1.61,.31,0,.57-.08,.9-.1v1.29c-.54,.07-1.03,.11-1.55,.11"/><path class="cls-2" d="M87.69,68.95c-1.55,0-2.36-.63-2.36-2.24v-6.35h-1.9v-1.17h1.9v-1.87l1.69-.71v2.59h2.16v1.17h-2.16v5.68c0,1.09,.1,1.61,1.32,1.61,.31,0,.57-.08,.9-.1v1.29c-.54,.07-1.03,.11-1.55,.11"/><path class="cls-2" d="M91.16,55.01h1.88v1.7h-1.88v-1.7Zm.1,4.17h1.69v9.67h-1.69v-9.67Z"/><path class="cls-2" d="M102.6,68.86v-5.36c0-1.68-.19-3.13-2.24-3.13s-2.66,1.89-2.66,3.67v4.82h-1.69v-7.18c0-.82-.04-1.93-.06-2.49h1.67l.06,1.55c.79-1.11,1.76-1.67,3.16-1.67,2.53,0,3.45,1.4,3.45,3.77v6.01h-1.69Z"/><path class="cls-2" d="M115.8,62.54v3.58c0,3.72-.17,6.59-4.56,6.59-1.95,0-4-.59-4-2.95h1.65c-.02,1.38,1.15,1.8,2.34,1.8,2.03,0,2.7-1.13,2.85-2.91,.04-.52,.04-1.06,.04-1.59-.75,1.15-1.82,1.71-3.2,1.71-2.89,0-4.25-2.2-4.25-4.86s1.42-4.89,4.23-4.89c1.44,0,2.55,.57,3.28,1.82v-1.64h1.7c-.14,1.11-.08,2.24-.08,3.35m-4.48-2.35c-2.12,0-2.85,1.95-2.85,3.77s.77,3.68,2.83,3.68,2.83-1.99,2.83-3.83c0-1.71-.86-3.62-2.81-3.62"/><path class="cls-2" d="M127.55,69.07c-2.05,0-3.77-.81-3.77-3.14h1.69c.07,1.34,.84,1.97,2.16,1.97,1.01,0,2.18-.5,2.18-1.65,0-.63-.36-1.01-.9-1.28-.6-.28-1.32-.44-1.97-.59-1.43-.36-2.91-.94-2.91-2.66,0-2.01,1.97-2.76,3.68-2.76,1.93,0,3.47,.8,3.54,2.93h-1.67c-.04-1.13-.78-1.78-1.91-1.78-.88,0-1.99,.4-1.99,1.43,0,.59,.36,.94,.9,1.21,.61,.31,1.34,.44,1.99,.61,1.46,.38,2.91,.94,2.91,2.7,0,2.2-2.03,3.01-3.92,3.01"/><polygon class="cls-2" points="136.86 72.5 135.21 72.5 136.71 68.84 132.57 59.19 134.58 59.19 137.57 66.94 140.56 59.19 142.2 59.19 136.86 72.5"/><path class="cls-2" d="M147.07,69.07c-2.05,0-3.77-.81-3.77-3.14h1.69c.08,1.34,.84,1.97,2.16,1.97,1.01,0,2.18-.5,2.18-1.65,0-.63-.36-1.01-.9-1.28-.59-.28-1.32-.44-1.97-.59-1.43-.36-2.91-.94-2.91-2.66,0-2.01,1.97-2.76,3.68-2.76,1.93,0,3.47,.8,3.54,2.93h-1.67c-.04-1.13-.78-1.78-1.91-1.78-.88,0-1.99,.4-1.99,1.43,0,.59,.36,.94,.9,1.21,.61,.31,1.34,.44,1.99,.61,1.46,.38,2.91,.94,2.91,2.7,0,2.2-2.03,3.01-3.93,3.01"/><path class="cls-2" d="M156.39,68.95c-1.55,0-2.35-.63-2.35-2.24v-6.35h-1.9v-1.17h1.9v-1.87l1.68-.71v2.59h2.17v1.17h-2.17v5.68c0,1.09,.09,1.61,1.32,1.61,.31,0,.58-.08,.9-.1v1.29c-.54,.07-1.04,.11-1.55,.11"/><path class="cls-2" d="M160.95,64.34v.19c0,1.78,.96,3.41,2.91,3.41,1.38,0,2.28-.84,2.49-2.2h1.61c-.38,2.28-2.03,3.33-4.23,3.33-3.01,0-4.46-2.01-4.46-4.89s1.46-5.17,4.6-5.17,4.15,2.51,4.15,5.33h-7.06Zm2.85-4.18c-1.78,0-2.66,1.46-2.81,3.07h5.36c.02-1.59-.78-3.07-2.55-3.07"/><path class="cls-2" d="M183.22,68.86v-5.7c0-1.57-.42-2.79-2.22-2.79-1.91,0-2.51,1.4-2.51,3.13v5.36h-1.68v-5.61c0-1.57-.34-2.89-2.2-2.89s-2.53,1.53-2.53,3.13v5.36h-1.69c.02-3.75,0-6.35,0-6.35,0-1.09-.04-2.21-.06-3.32h1.67l.06,1.61c.69-1.15,1.72-1.72,3.07-1.72,1.51,0,2.51,.57,3.08,2,.69-1.37,1.82-2,3.35-2,2.7,0,3.35,1.76,3.35,4.11v5.67h-1.69Z"/><path class="cls-2" d="M191.09,69.07c-2.05,0-3.77-.81-3.77-3.14h1.69c.07,1.34,.84,1.97,2.16,1.97,1.01,0,2.18-.5,2.18-1.65,0-.63-.36-1.01-.9-1.28-.59-.28-1.32-.44-1.97-.59-1.44-.36-2.91-.94-2.91-2.66,0-2.01,1.97-2.76,3.68-2.76,1.93,0,3.46,.8,3.54,2.93h-1.66c-.04-1.13-.79-1.78-1.92-1.78-.88,0-1.99,.4-1.99,1.43,0,.59,.37,.94,.9,1.21,.61,.31,1.34,.44,1.99,.61,1.46,.38,2.91,.94,2.91,2.7,0,2.2-2.03,3.01-3.93,3.01"/><polygon class="cls-1" points="166.98 49.93 195.13 49.93 219.64 24.94 195.13 0 166.98 0 166.98 19.09 187.43 19.09 192.63 24.94 187.43 30.9 166.98 30.9 166.98 49.93"/></svg></svg>
